<svg xmlns="http://www.w3.org/2000/svg" xmlns:xlink="http://www.w3.org/1999/xlink" width="282.902" height="74.005" viewBox="0 0 282.902 74.005">
  <defs>
    <clipPath id="clip-path">
      <path id="Tracé_106" data-name="Tracé 106" d="M137.5,0c75.939,0,142.027,1.934,142.027,22.369S213.439,74,137.5,74-.885,40.435-.885,20,61.561,0,137.5,0Z" transform="translate(-19 -27)" fill="#03a9f4"/>
    </clipPath>
  </defs>
  <g id="pattern-header" transform="translate(-46.115 29.005)">
    <g id="pattern-top">
      <path id="Tracé_100" data-name="Tracé 100" d="M137.5,0c75.939,0,144.517-.863,144.517,19.571S213.439,74,137.5,74-.85,40.006-.85,19.571,61.561,0,137.5,0Z" transform="translate(47 -29)" fill="#0edec8"/>
      <g id="Groupe_de_masques_7" data-name="Groupe de masques 7" transform="translate(66 -2)" clip-path="url(#clip-path)">
        <path id="Tracé_101" data-name="Tracé 101" d="M201.331,63.721a52.666,52.666,0,0,0-22.174-36.412c-14.7-9.8-31.51-11.437-49.95-4.9-3.735,1.167-7,3.268-10.27,4.9a11.837,11.837,0,0,0-3.735,2.1C102.6,17.972,88.36,13.07,72.022,15.171A55,55,0,0,0,36.076,34.077a53.89,53.89,0,0,0-10.97,39.68C26.74,88.929,33.742,102,45.179,112.27c1.167,1.167,1.634,1.634,1.634,3.268,0,7.7,5.368,14.7,13.071,15.872a3.469,3.469,0,0,1,2.1.467,16.822,16.822,0,0,0,15.872,15.872c1.167,8.636,7,14.7,15.872,15.872h0c.467,7,3.735,11.9,10.27,14.238,2.1,1.167,4.435,1.167,6.536,1.167a17.334,17.334,0,0,0,10.97-4.435l11.437-11.437.467-.467a9.1,9.1,0,0,0,2.8-4.435c.467-1.167,1.167-2.1,1.167-3.268h0c10.97.467,15.872-3.268,18.906-15.172,9.8-1.634,13.538-5.368,15.872-15.872h.467c7.7-.467,13.071-5.368,14.7-12.6a12.911,12.911,0,0,1,3.268-6.069A55.01,55.01,0,0,0,201.331,63.721ZM126.873,79.359a5.493,5.493,0,0,0,0,7.7l3.735,3.735,9.8,9.8,18.906,18.906a6.369,6.369,0,0,1,1.634,6.069c-.467,2.1-2.1,3.268-4.435,3.735a5.292,5.292,0,0,1-5.368-1.634L126.173,102.7l-5.135-5.368-1.167-1.167a5.447,5.447,0,0,0-7.7,7.7l4.9,4.9,2.1,2.1,6.536,6.535,17.272,17.272c1.634,1.634,3.268,4.435,1.167,7.7-1.167,1.167-2.1,2.1-3.735,2.1a6.409,6.409,0,0,1-4.435-1.167,6.487,6.487,0,0,1-2.8-2.8c-2.8-3.268-6.069-4.9-11.437-5.368,0-4.435-1.634-7.7-4.9-10.97a17.708,17.708,0,0,0-10.97-4.9A16.822,16.822,0,0,0,89.994,103.4v-1.167C88.827,95.7,85.559,90.8,79.024,88.7s-11.9-1.167-16.806,3.268l-8.169,8.169c-.467,1.167-1.634,1.634-2.8,2.8C36.076,89.4,30.708,66.055,38.644,48.549c6.536-14.238,18.439-22.174,35.245-23.808,11.437-1.167,22.174,2.8,31.51,10.97l.467.467L72.022,71.19l1.167,1.167a28.644,28.644,0,0,0,20.073,10.97,28.339,28.339,0,0,0,21.24-7.7c3.735-3.268,7-7,10.97-10.27l4.9-4.9.467-.467,1.634,1.634,19.607,19.607L174.956,104.1a5.446,5.446,0,0,1-1.634,9.1c-2.1,1.167-4.9.467-7-1.634l-21.24-21.24-9.336-9.336h0l-1.167-1.167C131.775,77.725,128.507,77.725,126.873,79.359ZM58.951,111.336a92.016,92.016,0,0,1,10.97-10.27,9.808,9.808,0,0,1,2.8-1.634h.467a8.629,8.629,0,0,1,6.069,3.268,5.017,5.017,0,0,1-1.167,6.069l-10.97,10.97a5.493,5.493,0,0,1-7.7,0C56.85,116.938,56.85,114.137,58.951,111.336Zm15.872,15.872,10.97-10.97a4.644,4.644,0,0,1,3.735-1.634,3.469,3.469,0,0,1,2.1.467,5.692,5.692,0,0,1,3.268,5.368.457.457,0,0,1-.467.467,14.816,14.816,0,0,1-1.634,2.8c-3.268,3.268-6.536,6.536-9.336,9.8l-1.167,1.167c-2.8,2.1-5.368,2.8-8.169,0C72.722,132.577,72.722,129.776,74.823,127.208Zm15.639,15.639,10.97-10.97a4.413,4.413,0,0,1,3.268-1.634,7.533,7.533,0,0,1,2.8.467,7.056,7.056,0,0,1,3.735,5.368c0,.467-.467.467-.467,1.167a14.816,14.816,0,0,1-1.634,2.8l-10.27,10.27c-2.1,2.1-5.368,2.1-8.169,0C88.36,148.449,88.36,145.181,90.461,142.847ZM104.7,160.819a14.816,14.816,0,0,1,1.634-2.8c2.8-2.8,5.368-6.069,8.636-8.636l2.1-2.1a5.447,5.447,0,1,1,7.7,7.7l-10.737,10.737a5.293,5.293,0,0,1-6.069,1.167,7.129,7.129,0,0,1-3.735-4.9A1.786,1.786,0,0,0,104.7,160.819ZM130.141,46.682c-1.634,0-3.268,1.167-4.9,2.8L107.267,67.455a17.459,17.459,0,0,1-20.073,3.268l4.435-4.435c4.435-4.435,8.636-8.636,13.071-12.6l3.268-3.268A110.488,110.488,0,0,1,117.3,41.78c13.538-12.6,36.412-15.872,52.051-7,16.339,8.636,24.975,29.41,20.073,47.849a47.469,47.469,0,0,1-7,14.7L144.379,59.286l-9.336-9.336C133.409,47.382,131.775,46.682,130.141,46.682Z" transform="translate(3.273 -29.795) rotate(-7)" fill="#fff"/>
      </g>
    </g>
  </g>
</svg>
